<svg width="512" height="512" viewBox="0 0 512 512" fill="none" xmlns="http://www.w3.org/2000/svg">
<g clip-path="url(#clip0_3554_44)">
<path d="M416 0H96C42.9807 0 0 42.9807 0 96V416C0 469.019 42.9807 512 96 512H416C469.019 512 512 469.019 512 416V96C512 42.9807 469.019 0 416 0Z" fill="url(#paint0_linear_3554_44)"/>
<path d="M184.638 108.727V436H115.445V108.727H184.638ZM285.083 328.784V436H233.649V250.545H282.669V283.266H284.842C288.947 272.48 295.829 263.947 305.488 257.669C315.147 251.31 326.859 248.131 340.623 248.131C353.502 248.131 364.731 250.948 374.309 256.582C383.888 262.217 391.333 270.266 396.646 280.73C401.958 291.114 404.615 303.509 404.615 317.918V436H353.18V327.094C353.26 315.744 350.363 306.89 344.487 300.531C338.611 294.092 330.521 290.872 320.218 290.872C313.296 290.872 307.178 292.361 301.866 295.339C296.634 298.318 292.529 302.664 289.551 308.379C286.653 314.014 285.164 320.815 285.083 328.784Z" fill="white"/>
<path d="M252.679 184.482V114.084H270.477V184.482H252.679ZM226.379 158.182V140.384H296.777V158.182H226.379ZM347.835 184.482V114.084H365.634V184.482H347.835ZM321.536 158.182V140.384H391.933V158.182H321.536Z" fill="white"/>
</g>
<defs>
<linearGradient id="paint0_linear_3554_44" x1="0" y1="0" x2="51200" y2="51200" gradientUnits="userSpaceOnUse">
<stop stop-color="#8B5CF6"/>
<stop offset="1" stop-color="#A855F7"/>
</linearGradient>
<clipPath id="clip0_3554_44">
<rect width="512" height="512" fill="white"/>
</clipPath>
</defs>
</svg>
