<svg width="512" height="512" viewBox="0 0 512 512" fill="none" xmlns="http://www.w3.org/2000/svg">
<g clip-path="url(#clip0_3554_44)">
<path d="M416 0H96C42.9807 0 0 42.9807 0 96V416C0 469.019 42.9807 512 96 512H416C469.019 512 512 469.019 512 416V96C512 42.9807 469.019 0 416 0Z" fill="url(#paint0_linear_3554_44)"/>
<path d="M178.566 108.727V436H119.28V108.727H178.566ZM282.447 328.784V436H231.012V250.545H280.032V283.266H282.205C286.31 272.48 293.192 263.947 302.851 257.669C312.51 251.31 324.222 248.131 337.986 248.131C350.865 248.131 362.094 250.948 371.672 256.582C381.251 262.217 388.697 270.266 394.009 280.73C399.322 291.114 401.978 303.509 401.978 317.918V436H350.543V327.094C350.624 315.744 347.726 306.89 341.85 300.531C335.974 294.092 327.885 290.872 317.582 290.872C310.659 290.872 304.542 292.361 299.229 295.339C293.997 298.318 289.892 302.664 286.914 308.379C284.016 314.014 282.527 320.815 282.447 328.784Z" fill="white"/>
<path d="M252.679 184.482V114.084H270.477V184.482H252.679ZM226.379 158.182V140.384H296.777V158.182H226.379ZM347.835 184.482V114.084H365.634V184.482H347.835ZM321.536 158.182V140.384H391.933V158.182H321.536Z" fill="white"/>
</g>
<defs>
<linearGradient id="paint0_linear_3554_44" x1="0" y1="0" x2="51200" y2="51200" gradientUnits="userSpaceOnUse">
<stop stop-color="#8B5CF6"/>
<stop offset="1" stop-color="#A855F7"/>
</linearGradient>
<clipPath id="clip0_3554_44">
<rect width="512" height="512" fill="white"/>
</clipPath>
</defs>
</svg>
